<svg width="40" height="40" viewBox="0 0 40 40" fill="none" xmlns="http://www.w3.org/2000/svg">
<rect width="40" height="40" rx="5" fill="white"/>
<path d="M20.3 13.5C22.5 13.5 22.8 13.5 23.7 13.5C24.5 13.5 24.9 13.7 25.2 13.8C25.6 14 25.9 14.1 26.2 14.4C26.5 14.7 26.7 15 26.8 15.4C26.9 15.7 27 16.1 27.1 16.9C27.1 17.8 27.1 18 27.1 20.3C27.1 22.6 27.1 22.8 27.1 23.7C27.1 24.5 26.9 24.9 26.8 25.2C26.6 25.6 26.5 25.9 26.2 26.2C25.9 26.5 25.6 26.7 25.2 26.8C24.9 26.9 24.5 27 23.7 27.1C22.8 27.1 22.6 27.1 20.3 27.1C18 27.1 17.8 27.1 16.9 27.1C16.1 27.1 15.7 26.9 15.4 26.8C15 26.6 14.7 26.5 14.4 26.2C14.1 25.9 13.9 25.6 13.8 25.2C13.7 24.9 13.6 24.5 13.5 23.7C13.5 22.8 13.5 22.6 13.5 20.3C13.5 18 13.5 17.8 13.5 16.9C13.5 16.1 13.7 15.7 13.8 15.4C14 15 14.1 14.7 14.4 14.4C14.7 14.1 15 13.9 15.4 13.8C15.7 13.7 16.1 13.6 16.9 13.5C17.8 13.5 18.1 13.5 20.3 13.5ZM20.3 12C18 12 17.8 12 16.9 12C16 12 15.4 12.2 14.9 12.4C14.4 12.6 13.9 12.9 13.4 13.4C12.9 13.9 12.7 14.3 12.4 14.9C12.2 15.4 12.1 16 12 16.9C12 17.8 12 18.1 12 20.3C12 22.6 12 22.8 12 23.7C12 24.6 12.2 25.2 12.4 25.7C12.6 26.2 12.9 26.7 13.4 27.2C13.9 27.7 14.3 27.9 14.9 28.2C15.4 28.4 16 28.5 16.9 28.6C17.8 28.6 18.1 28.6 20.3 28.6C22.5 28.6 22.8 28.6 23.7 28.6C24.6 28.6 25.2 28.4 25.7 28.2C26.2 28 26.7 27.7 27.2 27.2C27.7 26.7 27.9 26.3 28.2 25.7C28.4 25.2 28.5 24.6 28.6 23.7C28.6 22.8 28.6 22.5 28.6 20.3C28.6 18.1 28.6 17.8 28.6 16.9C28.6 16 28.4 15.4 28.2 14.9C28 14.4 27.7 13.9 27.2 13.4C26.7 12.9 26.3 12.7 25.7 12.4C25.2 12.2 24.6 12.1 23.7 12C22.8 12 22.6 12 20.3 12Z" fill="black"/>
<path d="M20.3 16C17.9 16 16 17.9 16 20.3C16 22.7 17.9 24.6 20.3 24.6C22.7 24.6 24.6 22.7 24.6 20.3C24.6 17.9 22.7 16 20.3 16ZM20.3 23.1C18.8 23.1 17.5 21.9 17.5 20.3C17.5 18.8 18.7 17.5 20.3 17.5C21.8 17.5 23.1 18.7 23.1 20.3C23.1 21.8 21.8 23.1 20.3 23.1Z" fill="black"/>
<path d="M24.7 16.9C25.2523 16.9 25.7 16.4523 25.7 15.9C25.7 15.3477 25.2523 14.9 24.7 14.9C24.1477 14.9 23.7 15.3477 23.7 15.9C23.7 16.4523 24.1477 16.9 24.7 16.9Z" fill="black"/>
</svg>
