<svg width="40" height="40" viewBox="0 0 40 40" fill="none" xmlns="http://www.w3.org/2000/svg">
<rect width="40" height="40" rx="5" fill="white"/>
<path d="M28 15.5C27.4 15.8 26.8 15.9 26.1 16C26.8 15.6 27.3 15 27.5 14.2C26.9 14.6 26.2 14.8 25.4 15C24.8 14.4 23.9 14 23 14C20.9 14 19.3 16 19.8 18C17.1 17.9 14.7 16.6 13 14.6C12.1 16.1 12.6 18 14 19C13.5 19 13 18.8 12.5 18.6C12.5 20.1 13.6 21.5 15.1 21.9C14.6 22 14.1 22.1 13.6 22C14 23.3 15.2 24.3 16.7 24.3C15.5 25.2 13.7 25.7 12 25.5C13.5 26.4 15.2 27 17 27C23.1 27 26.5 21.9 26.3 17.2C27 16.8 27.6 16.2 28 15.5Z" fill="black"/>
</svg>
