<svg width="40" height="40" viewBox="0 0 40 40" fill="none" xmlns="http://www.w3.org/2000/svg">
<rect width="40" height="40" rx="5" fill="white"/>
<path d="M15.428 27.3081C15.3446 27.2558 15.2493 27.2297 15.1543 27.2297C15.1029 27.2297 15.0522 27.2375 15.0035 27.2522L15.0027 27.2524L11.9756 28.1842C12.2242 27.2781 12.6022 25.9079 12.8303 25.1133C12.8715 24.9698 12.8482 24.8155 12.7675 24.6905L12.7673 24.6902C11.8602 23.2944 11.3808 21.6727 11.3808 20C11.3808 15.2477 15.2477 11.3808 20 11.3808C24.7523 11.3808 28.6192 15.2477 28.6192 20C28.6192 24.7523 24.7523 28.6192 20 28.6192C18.3769 28.6192 16.7961 28.1656 15.428 27.3081ZM15.428 27.3081L15.3483 27.4352L15.428 27.3081C15.428 27.3081 15.428 27.3081 15.428 27.3081ZM15.0842 28.3056C16.569 29.186 18.2635 29.65 20 29.65C25.3214 29.65 29.65 25.3214 29.65 20C29.65 14.6786 25.3214 10.35 20 10.35C14.6786 10.35 10.35 14.6786 10.35 20C10.35 21.7926 10.842 23.5339 11.7761 25.0511C11.5897 25.7058 11.3361 26.6215 11.1257 27.3856C11.0171 27.7803 10.9199 28.1347 10.8495 28.3921L10.7657 28.6983L10.7425 28.7835L10.7361 28.8067L10.7344 28.8131L10.7338 28.8152L10.7338 28.8152L10.7335 28.8164C10.684 28.9977 10.737 29.1917 10.8728 29.3224C11.0082 29.4525 11.2036 29.499 11.3821 29.4443L11.3823 29.4442L15.0842 28.3056Z" fill="black" stroke="black" stroke-width="0.3"/>
<path d="M24.7255 21.6689C24.216 21.386 23.7821 21.1023 23.4655 20.8953C23.2237 20.7374 23.049 20.6234 22.9209 20.5591C22.563 20.3805 22.2916 20.5067 22.1884 20.611C22.1754 20.624 22.1638 20.638 22.1539 20.6529C21.7821 21.2108 21.2966 21.7443 21.1545 21.773C20.9902 21.7473 20.2216 21.3104 19.4576 20.6742C18.6776 20.0242 18.1868 19.4018 18.1148 18.9778C18.6152 18.4628 18.7954 18.1388 18.7954 17.77C18.7954 17.39 17.9089 15.8032 17.7485 15.6428C17.5876 15.4822 17.2252 15.4571 16.6712 15.5675C16.618 15.5782 16.5688 15.6044 16.5302 15.6428C16.4631 15.7099 14.8937 17.3099 15.6395 19.2492C16.4582 21.3775 18.5594 23.8513 21.2384 24.2532C21.5428 24.2988 21.8282 24.3214 22.0954 24.3214C23.6714 24.3214 24.6016 23.5284 24.8635 21.9554C24.8831 21.8403 24.8276 21.7255 24.7255 21.6689ZM21.3204 23.7073C18.4874 23.2825 16.703 20.4757 16.1548 19.051C15.6111 17.6378 16.6138 16.3778 16.8656 16.093C17.0704 16.0582 17.2859 16.0436 17.3759 16.0577C17.5639 16.319 18.2147 17.5487 18.2434 17.77C18.2434 17.9149 18.1962 18.1167 17.6342 18.6789C17.5824 18.7305 17.5534 18.8006 17.5534 18.8741C17.5534 20.3192 20.6016 22.3242 21.1415 22.3242C21.611 22.3242 22.2232 21.5351 22.5718 21.0209C22.5919 21.0217 22.6259 21.0286 22.6742 21.0529C22.7736 21.1028 22.9458 21.2152 23.1636 21.3576C23.4512 21.5456 23.8332 21.7951 24.2842 22.0537C24.0794 23.039 23.5069 24.0357 21.3204 23.7073Z" fill="white"/>
<path d="M16.6381 15.8235H17.3935L18.1489 16.9566L18.5266 18.0897L17.7712 18.8451L18.1489 19.6005L19.282 21.1113L21.1705 22.2444L21.5482 21.8667L22.6813 20.7336L24.5698 21.8667L23.8144 23.3774L22.3036 24.1328L20.0374 23.7551L18.1489 22.6221L16.6381 20.3559L15.8828 18.8451V16.9566L16.6381 15.8235Z" fill="black"/>
</svg>
